<?xml version="1.0" standalone="no"?><!DOCTYPE svg PUBLIC "-//W3C//DTD SVG 1.1//EN" "http://www.w3.org/Graphics/SVG/1.1/DTD/svg11.dtd"><svg t="1653817079764" class="icon" viewBox="0 0 1024 1024" version="1.1" xmlns="http://www.w3.org/2000/svg" p-id="1500" xmlns:xlink="http://www.w3.org/1999/xlink" width="128" height="128"><defs><style type="text/css"></style></defs><path d="M800.152 759.584c-21.176 0-38.376-2.528-58.68-15.136a24 24 0 0 1 25.304-40.784c9.896 6.144 17.384 7.912 33.376 7.912 40.6 0 73.632-33.032 73.632-73.632s-33.032-73.632-73.632-73.632a24 24 0 1 1 0-48c67.072 0 121.632 54.56 121.632 121.632s-54.56 121.64-121.632 121.64z" fill="#6E4123" p-id="1501"></path><path d="M135.992 878.088a381.336 94.504 0 1 0 762.672 0 381.336 94.504 0 1 0-762.672 0Z" fill="#B8CBCD" p-id="1502"></path><path d="M802.12 442.576v112c0 181.152-114.856 328-296 328h16c-181.152 0-312-146.848-312-328v-112" fill="#F7BB83" p-id="1503"></path><path d="M522.12 906.576h-16c-1.944 0-3.832-0.224-5.632-0.664-84.92-5.24-162.336-41.368-219.848-103.04C219.688 737.52 188 650.768 188 556v-112c0-13.256 8.864-25.424 22.12-25.424s24 10.744 24 24v112c0 170.48 119.808 299.712 279.984 303.896 155.864-4.096 264.016-127.896 264.016-303.896v-112a24 24 0 1 1 48 0v112c0 195.904-124.16 340.216-298.28 351.312a23.632 23.632 0 0 1-5.72 0.688z" fill="#6E4123" p-id="1504"></path><path d="M802.12 442.576v112c0 181.152-122.856 328-304 328h16c-181.152 0-304-146.848-304-328v-112" fill="#F7BB83" p-id="1505"></path><path d="M514.12 906.576h-16c-1.976 0-3.896-0.24-5.736-0.688C316.304 894.664 188 748.816 188 556v-112c0-13.256 8.864-25.424 22.12-25.424s24 10.744 24 24v112c0 173.232 113.904 299.76 272 303.896 158.096-4.144 272-130.664 272-303.896v-112a24 24 0 1 1 48 0v112c0 192.824-130.184 340.088-306.264 351.312-1.84 0.448-3.76 0.688-5.736 0.688z" fill="#6E4123" p-id="1506"></path><path d="M802.12 442.576v112c0 181.152-122.856 328-304 328h16c-181.152 0-304-146.848-304-328v-112" fill="#F7BB83" p-id="1507"></path><path d="M514.12 906.576h-16c-1.976 0-3.896-0.24-5.736-0.688C316.304 894.664 188 748.816 188 556v-112c0-13.256 8.864-25.424 22.12-25.424s24 10.744 24 24v112c0 173.232 113.904 299.76 272 303.896 158.096-4.144 272-130.664 272-303.896v-112a24 24 0 1 1 48 0v112c0 192.824-130.184 340.088-306.264 351.312-1.84 0.448-3.76 0.688-5.736 0.688z" fill="#6E4123" p-id="1508"></path><path d="M514.12 882.576h16c-2.696 0-5.336-0.144-8-0.2-2.664 0.056-5.304 0.2-8 0.2zM290.12 554.576v-74.992l-64-37.008v112c0 178.456 119.264 323.512 296 327.8a318.488 318.488 0 0 0 32-2.368c-158.968-19.928-264-157.968-264-325.432z" fill="#FFFFFF" p-id="1509"></path><path d="M770.12 503.584c0 181.152-88 344-288 368v8" fill="#F7BB83" p-id="1510"></path><path d="M482.12 903.584a24 24 0 0 1-24-24v-8a24 24 0 0 1 21.144-23.832c167.096-20.056 266.856-148.712 266.856-344.168a24 24 0 1 1 48 0c0 212.208-111.424 359.832-292.096 389.416a23.96 23.96 0 0 1-19.904 10.584z" fill="#6E4123" p-id="1511"></path><path d="M210.12 447.584c0-37.552 123.688-68 296-68s296 30.448 296 68" fill="#F7BB83" p-id="1512"></path><path d="M802.12 471.584a24 24 0 0 1-23.936-22.264c-11.04-16.336-100.104-45.736-272.064-45.736s-261.024 29.4-272.064 45.736a24 24 0 0 1-23.936 22.264c-13.256 0-22.12-14.328-22.12-27.584 0-87.568 264.68-88.416 318.12-88.416s320 4.432 320 92a24 24 0 0 1-24 24z" fill="#6E4123" p-id="1513"></path><path d="M506.12 518.576c-143.928 0-312-22-312-84a16 16 0 0 1 32 0c0 14.32 86.096 52 280 52s280-37.68 280-52a16 16 0 0 1 32 0c0 62-168.072 84-312 84z" fill="#6E4123" p-id="1514"></path><path d="M555.314563 707.743367a60.352 92.608 45.001 1 0-85.349127-85.352107 60.352 92.608 45.001 1 0 85.349127 85.352107Z" fill="#FFFFFF" p-id="1515"></path><path d="M481.008 759.232c-18.176 0-33.8-6.008-45.168-17.376-30.272-30.264-20.248-87.712 22.808-130.784 25.16-25.168 57.168-40.176 85.616-40.176 18.176 0 33.8 6.008 45.168 17.376 30.272 30.28 20.248 87.728-22.808 130.784-25.16 25.152-57.16 40.176-85.616 40.176z m63.256-156.336c-19.848 0-43.992 11.808-62.992 30.808-29.36 29.368-39.808 68.528-22.808 85.528 6.616 6.608 15.912 8 22.536 8 19.848 0 43.992-11.808 62.992-30.808 29.36-29.36 39.8-68.528 22.808-85.528-6.608-6.608-15.904-8-22.536-8z" fill="#6E4123" p-id="1516"></path><path d="M450.12 735.584a16 16 0 0 1-16-16c0-32.208 34.88-50.272 80.472-70.528 39.192-17.424 39.536-47.896 39.528-49.184a16.104 16.104 0 0 1 15.728-16.168c8.728-0.024 15.992 6.648 16.264 15.392 0.064 2.152 0.92 52.776-58.52 79.2-43.664 19.4-61.472 31.36-61.472 41.288a16 16 0 0 1-16 16zM535.368 327.584c-33.792 0-69.704-23.832-69.704-67.984 0-33.096 25.176-53.136 43.552-67.776 10.504-8.36 22.408-17.84 22.408-24.168 0-6.688-1.544-13.824-19.976-13.824a24 24 0 1 1 0-48c46.952 0 67.976 31.048 67.976 61.824 0 29.464-22.464 47.344-40.512 61.72-15.376 12.24-25.456 20.96-25.456 30.224 0 19.424 19.488 19.984 21.704 19.984a24 24 0 0 1 0.008 48z" fill="#6E4123" p-id="1517"></path><path d="M514.12 906.576h-16c-1.976 0-3.896-0.24-5.736-0.688C316.304 894.664 188 748.816 188 556v-112c0-13.256 8.864-25.424 22.12-25.424S236 430.744 236 444v112c0 173.232 112.024 298.336 270.12 302.472 158.096-4.144 272-130.664 272-303.896v-112a24 24 0 1 1 48 0v112c0 192.824-130.184 340.088-306.264 351.312-1.84 0.448-3.76 0.688-5.736 0.688z" fill="#6E4123" p-id="1518"></path></svg>